<?xml version="1.0" standalone="no"?>
<!DOCTYPE svg PUBLIC "-//W3C//DTD SVG 20010904//EN"
 "http://www.w3.org/TR/2001/REC-SVG-20010904/DTD/svg10.dtd">
<svg version="1.0" xmlns="http://www.w3.org/2000/svg"
 width="120.000000pt" height="120.000000pt" viewBox="0 0 120.000000 120.000000"
 preserveAspectRatio="xMidYMid meet">
<metadata>
Created by potrace 1.14, written by Peter Selinger 2001-2017
</metadata>
<g transform="translate(0.000000,120.000000) scale(0.100000,-0.100000)"
fill="#000000" stroke="none">
<path d="M136 1186 c-49 -18 -94 -60 -117 -111 -16 -35 -19 -67 -19 -240 0
-111 5 -217 11 -238 14 -52 71 -112 125 -133 45 -17 47 -20 45 -88 -1 -46 -22
-66 -71 -64 -42 1 -75 -15 -90 -43 -15 -28 -24 -175 -11 -183 5 -4 263 -6 573
-5 310 0 575 0 591 0 23 -1 27 2 27 28 0 29 0 29 -62 28 l-63 -1 -3 188 c-2
184 -2 187 18 181 14 -4 22 -1 27 11 7 18 5 20 -191 199 -54 50 -124 114 -155
142 -31 29 -63 53 -72 53 -8 0 -28 -14 -45 -31 -56 -59 -55 -59 -130 61 -67
108 -90 132 -105 109 -5 -8 -12 0 -22 22 -42 98 -162 152 -261 115z m146 -58
c77 -43 101 -119 61 -189 -14 -24 -45 -80 -69 -124 l-44 -80 0 48 c0 37 6 56
26 83 21 27 24 37 14 48 -6 8 -18 12 -26 9 -11 -4 -14 5 -14 40 0 48 -8 61
-33 51 -12 -4 -14 -25 -13 -105 1 -87 -1 -98 -15 -94 -9 3 -22 -1 -29 -9 -10
-13 -7 -20 14 -40 25 -22 27 -30 27 -112 1 -166 3 -154 -28 -143 -41 15 -72
43 -88 83 -18 43 -22 407 -4 453 34 90 137 128 221 81z m216 -237 c28 -49 52
-92 52 -97 0 -11 -72 -84 -82 -84 -4 0 -8 11 -8 24 0 29 -12 39 -34 30 -12 -5
-16 -20 -16 -58 0 -50 0 -52 -66 -112 -49 -44 -65 -66 -61 -78 5 -11 14 -15
29 -11 22 6 23 4 22 -62 -1 -52 -5 -67 -15 -65 -37 9 -76 74 -85 139 -6 46 18
139 56 221 42 90 133 242 145 242 6 0 34 -40 63 -89z m235 -65 c15 -13 77 -70
137 -126 60 -56 118 -110 129 -120 20 -16 21 -28 21 -229 l0 -211 -44 0 -44 0
1 130 c0 71 -3 133 -7 137 -8 9 -184 8 -193 -1 -4 -3 -6 -65 -6 -136 0 -126 0
-130 -21 -131 -39 -1 -281 -1 -302 0 -22 1 -22 3 -21 214 l1 212 66 59 c36 33
105 97 154 143 49 46 92 83 95 83 3 0 19 -11 34 -24z m-438 -494 c18 -10 19
-11 2 -17 -24 -10 -67 21 -67 47 l0 21 23 -20 c12 -11 31 -25 42 -31z m585 26
c3 -3 5 -55 4 -114 l0 -108 -47 1 c-25 1 -50 4 -54 6 -10 7 -10 197 0 213 7
12 88 14 97 2z m-640 -90 c18 -20 24 -21 53 -10 19 7 35 12 38 12 7 0 4 -119
-3 -126 -9 -8 -266 -9 -275 -1 -3 4 -1 17 4 30 7 15 7 29 2 40 -7 12 -4 22 11
37 19 19 23 19 49 6 27 -14 30 -14 51 9 29 31 43 31 70 3z"/>
<path d="M479 408 c-18 -7 -20 -16 -17 -90 l3 -83 75 -2 c103 -2 105 0 104 91
-1 42 -4 79 -8 83 -9 9 -133 10 -157 1z m112 -52 c8 -66 5 -71 -39 -74 l-42
-3 0 39 c0 21 2 41 4 43 10 9 76 5 77 -5z"/>
</g>
</svg>
